<svg version="1.2" baseProfile="tiny" id="Layer_1" xmlns="http://www.w3.org/2000/svg" xmlns:xlink="http://www.w3.org/1999/xlink"
	 x="0px" y="0px" viewBox="0 0 24 24" xml:space="preserve">
<g>
	<path fill="#40C4FF" d="M10.1,16H4.1v2.6h9.1c0,0,0.1,0,0.1,0c1.7-0.1,3.1-1.5,3.1-3.2c0-1.8-1.4-3.2-3.2-3.2H9.6
		C8.2,11.7,7,10.3,7,8.6c0-2.1,2-3.9,4.1-3.9h8.8V1.9h-9.2c-3.6,0-6.6,2.9-6.6,6.6c0,3.6,3.2,6.6,6.8,6.6v0l0,0h2.1
		c0.3,0,0.5,0.2,0.5,0.5c0,0.3-0.2,0.5-0.5,0.5H10.1z"/>
	<path fill="#40C4FF" d="M14,8h5.9V5.4h-9.1c0,0-0.1,0-0.1,0C9,5.5,7.7,6.9,7.7,8.6c0,1.8,1.4,3.2,3.2,3.2h3.6
		c1.4,0.6,2.7,2,2.7,3.6c0,2.1-2,3.9-4.1,3.9H4.1v2.8h9.2c3.6,0,6.6-2.9,6.6-6.6c0-3.6-3.2-6.6-6.8-6.6v0l0,0H11
		c-0.3,0-0.5-0.2-0.5-0.5C10.5,8.2,10.7,8,11,8H14z"/>
</g>
</svg>
